<svg xmlns="http://www.w3.org/2000/svg" width="1140" height="930" viewBox="0 0 1140 930"><rect width="100%" height="100%" fill="#fff"></rect><line x1="80" y1="76" x2="80" y2="916" stroke="#000" stroke-width="1.8" stroke-dasharray="9 7" stroke-linecap="round"></line><rect x="10" y="10" width="140" height="66" rx="3" fill="#fff" stroke="#000" stroke-width="2.4"></rect><g><text x="80" y="43" font-family="&quot;Liberation Sans&quot;, Arial, Helvetica, sans-serif" font-size="19" text-anchor="middle" dominant-baseline="central" font-weight="bold" fill="#000">Менеджер</text></g><line x1="305" y1="76" x2="305" y2="916" stroke="#000" stroke-width="1.8" stroke-dasharray="9 7" stroke-linecap="round"></line><rect x="235" y="10" width="140" height="66" rx="3" fill="#fff" stroke="#000" stroke-width="2.4"></rect><g><text x="305" y="43" font-family="&quot;Liberation Sans&quot;, Arial, Helvetica, sans-serif" font-size="19" text-anchor="middle" dominant-baseline="central" font-weight="bold" fill="#000">Клиент</text></g><line x1="545" y1="76" x2="545" y2="916" stroke="#000" stroke-width="1.8" stroke-dasharray="9 7" stroke-linecap="round"></line><rect x="475" y="10" width="140" height="66" rx="3" fill="#fff" stroke="#000" stroke-width="2.4"></rect><g><text x="545" y="43" font-family="&quot;Liberation Sans&quot;, Arial, Helvetica, sans-serif" font-size="19" text-anchor="middle" dominant-baseline="central" font-weight="bold" fill="#000">Сервер</text></g><line x1="775" y1="76" x2="775" y2="916" stroke="#000" stroke-width="1.8" stroke-dasharray="9 7" stroke-linecap="round"></line><rect x="700" y="10" width="150" height="66" rx="3" fill="#fff" stroke="#000" stroke-width="2.4"></rect><g><text x="775" y="31.41" font-family="&quot;Liberation Sans&quot;, Arial, Helvetica, sans-serif" font-size="19" text-anchor="middle" dominant-baseline="central" font-weight="bold" fill="#000">Кэш</text><text x="775" y="54.59" font-family="&quot;Liberation Sans&quot;, Arial, Helvetica, sans-serif" font-size="19" text-anchor="middle" dominant-baseline="central" font-weight="bold" fill="#000">прогнозов</text></g><line x1="1020" y1="76" x2="1020" y2="916" stroke="#000" stroke-width="1.8" stroke-dasharray="9 7" stroke-linecap="round"></line><rect x="950" y="10" width="140" height="66" rx="3" fill="#fff" stroke="#000" stroke-width="2.4"></rect><g><text x="1020" y="43" font-family="&quot;Liberation Sans&quot;, Arial, Helvetica, sans-serif" font-size="19" text-anchor="middle" dominant-baseline="central" font-weight="bold" fill="#000">Сервис ИИ</text></g><path d="M87 128 L285 128" fill="none" stroke="#000" stroke-width="2.2" stroke-linejoin="round" stroke-linecap="round"></path><polygon points="298,128 283,121 283,135" fill="#000" stroke="#000" stroke-width="1" stroke-linejoin="round"></polygon><rect x="100.85107421875" y="100.4" width="183.2978515625" height="19.599999999999998" fill="#fff"></rect><g><text x="192.5" y="110.2" font-family="&quot;Liberation Sans&quot;, Arial, Helvetica, sans-serif" font-size="18" text-anchor="middle" dominant-baseline="central" fill="#000">Параметры прогноза</text></g><path d="M312 190 L525 190" fill="none" stroke="#000" stroke-width="2.2" stroke-linejoin="round" stroke-linecap="round"></path><polygon points="538,190 523,183 523,197" fill="#000" stroke="#000" stroke-width="1" stroke-linejoin="round"></polygon><rect x="335.73291015625" y="162.39999999999998" width="178.5341796875" height="19.599999999999998" fill="#fff"></rect><g><text x="425" y="172.2" font-family="&quot;Liberation Sans&quot;, Arial, Helvetica, sans-serif" font-size="18" text-anchor="middle" dominant-baseline="central" fill="#000">POST /predict + JWT</text></g><path d="M552 222 L596 222 L596 256 L565 256" fill="none" stroke="#000" stroke-width="2.2" stroke-linejoin="round" stroke-linecap="round"></path><polygon points="552,256 567,249 567,263" fill="#000" stroke="#000" stroke-width="1" stroke-linejoin="round"></polygon><g><text x="606" y="239" font-family="&quot;Liberation Sans&quot;, Arial, Helvetica, sans-serif" font-size="18.400000000000002" text-anchor="start" dominant-baseline="central" fill="#000"></text></g><rect x="655.233154296875" y="215.6" width="209.53369140625" height="46.8" fill="#fff" opacity="1"></rect><g><text x="760" y="228.63" font-family="&quot;Liberation Sans&quot;, Arial, Helvetica, sans-serif" font-size="17" text-anchor="middle" dominant-baseline="central" fill="#000">проверка прав и данных,</text><text x="760" y="249.37" font-family="&quot;Liberation Sans&quot;, Arial, Helvetica, sans-serif" font-size="17" text-anchor="middle" dominant-baseline="central" fill="#000">план затрат, сценарий</text></g><path d="M557 322 L755 322" fill="none" stroke="#000" stroke-width="2.2" stroke-linejoin="round" stroke-linecap="round"></path><polygon points="768,322 753,315 753,329" fill="#000" stroke="#000" stroke-width="1" stroke-linejoin="round"></polygon><rect x="593.64990234375" y="272.79999999999995" width="137.7001953125" height="19.599999999999998" fill="#fff"></rect><g><text x="662.5" y="282.59999999999997" font-family="&quot;Liberation Sans&quot;, Arial, Helvetica, sans-serif" font-size="18" text-anchor="middle" dominant-baseline="central" fill="#000">Поиск по ключу</text></g><rect x="624.978515625" y="294.4" width="75.04296875" height="19.599999999999998" fill="#fff"></rect><g><text x="662.5" y="304.2" font-family="&quot;Liberation Sans&quot;, Arial, Helvetica, sans-serif" font-size="18" text-anchor="middle" dominant-baseline="central" fill="#000">запроса</text></g><rect x="440" y="348" width="680" height="412" rx="0" fill="none" stroke="#333" stroke-width="2"></rect><polygon points="440,348 484.1728515625,348 484.1728515625,363.4 473.1728515625,376 440,376" fill="#fff" stroke="#333" stroke-width="2" stroke-linejoin="round"></polygon><g><text x="450" y="362" font-family="&quot;Liberation Sans&quot;, Arial, Helvetica, sans-serif" font-size="19" text-anchor="start" dominant-baseline="central" font-weight="bold" fill="#000">alt</text></g><rect x="488.1728515625" y="350" width="167.7900390625" height="24" fill="#fff"></rect><g><text x="492.1728515625" y="362" font-family="&quot;Liberation Sans&quot;, Arial, Helvetica, sans-serif" font-size="18" text-anchor="start" dominant-baseline="central" font-style="italic" fill="#000">[ответ есть в кэше]</text></g><line x1="440" y1="452" x2="1120" y2="452" stroke="#333" stroke-width="1.8" stroke-dasharray="10 7" stroke-linecap="round"></line><rect x="448" y="457" width="168.5634765625" height="24" fill="#fff"></rect><g><text x="452" y="469" font-family="&quot;Liberation Sans&quot;, Arial, Helvetica, sans-serif" font-size="18" text-anchor="start" dominant-baseline="central" font-style="italic" fill="#000">[ответа в кэше нет]</text></g><path d="M763 420 L570 420" fill="none" stroke="#000" stroke-width="2.2" stroke-dasharray="9 6" stroke-linejoin="round" stroke-linecap="round"></path><polygon points="557,420 572,413 572,427" fill="#fff" stroke="#000" stroke-width="2" stroke-linejoin="round"></polygon><rect x="597.86474609375" y="392.4" width="124.2705078125" height="19.599999999999998" fill="#fff"></rect><g><text x="660" y="402.2" font-family="&quot;Liberation Sans&quot;, Arial, Helvetica, sans-serif" font-size="18" text-anchor="middle" dominant-baseline="central" fill="#000">готовый ответ</text></g><path d="M557 520 L1000 520" fill="none" stroke="#000" stroke-width="2.2" stroke-linejoin="round" stroke-linecap="round"></path><polygon points="1013,520 998,513 998,527" fill="#000" stroke="#000" stroke-width="1" stroke-linejoin="round"></polygon><rect x="645.93408203125" y="492.4" width="278.1318359375" height="19.599999999999998" fill="#fff"></rect><g><text x="785" y="502.2" font-family="&quot;Liberation Sans&quot;, Arial, Helvetica, sans-serif" font-size="18" text-anchor="middle" dominant-baseline="central" fill="#000">POST /api/v1/models/{id}/forecast</text></g><rect x="470" y="548" width="640" height="200" rx="0" fill="none" stroke="#333" stroke-width="2"></rect><polygon points="470,548 514.1728515625,548 514.1728515625,563.4 503.1728515625,576 470,576" fill="#fff" stroke="#333" stroke-width="2" stroke-linejoin="round"></polygon><g><text x="480" y="562" font-family="&quot;Liberation Sans&quot;, Arial, Helvetica, sans-serif" font-size="19" text-anchor="start" dominant-baseline="central" font-weight="bold" fill="#000">alt</text></g><rect x="518.1728515625" y="550" width="138.07421875" height="24" fill="#fff"></rect><g><text x="522.1728515625" y="562" font-family="&quot;Liberation Sans&quot;, Arial, Helvetica, sans-serif" font-size="18" text-anchor="start" dominant-baseline="central" font-style="italic" fill="#000">[ответ получен]</text></g><line x1="470" y1="662" x2="1110" y2="662" stroke="#333" stroke-width="1.8" stroke-dasharray="10 7" stroke-linecap="round"></line><rect x="478" y="667" width="377.2685546875" height="24" fill="#fff"></rect><g><text x="482" y="679" font-family="&quot;Liberation Sans&quot;, Arial, Helvetica, sans-serif" font-size="18" text-anchor="start" dominant-baseline="central" font-style="italic" fill="#000">[сбой, тайм-аут, предохранитель разомкнут]</text></g><path d="M1008 606 L570 606" fill="none" stroke="#000" stroke-width="2.2" stroke-dasharray="9 6" stroke-linejoin="round" stroke-linecap="round"></path><polygon points="557,606 572,599 572,613" fill="#fff" stroke="#000" stroke-width="2" stroke-linejoin="round"></polygon><rect x="676.25244140625" y="578.4000000000001" width="212.4951171875" height="19.599999999999998" fill="#fff"></rect><g><text x="782.5" y="588.2" font-family="&quot;Liberation Sans&quot;, Arial, Helvetica, sans-serif" font-size="18" text-anchor="middle" dominant-baseline="central" fill="#000">точки, интервал, вклады</text></g><path d="M557 650 L750 650" fill="none" stroke="#000" stroke-width="2.2" stroke-linejoin="round" stroke-linecap="round"></path><polygon points="763,650 748,643 748,657" fill="#000" stroke="#000" stroke-width="1" stroke-linejoin="round"></polygon><rect x="588.236328125" y="622.4000000000001" width="143.52734375" height="19.599999999999998" fill="#fff"></rect><g><text x="660" y="632.2" font-family="&quot;Liberation Sans&quot;, Arial, Helvetica, sans-serif" font-size="18" text-anchor="middle" dominant-baseline="central" fill="#000">сохранить ответ</text></g><path d="M552 696 L596 696 L596 730 L565 730" fill="none" stroke="#000" stroke-width="2.2" stroke-linejoin="round" stroke-linecap="round"></path><polygon points="552,730 567,723 567,737" fill="#000" stroke="#000" stroke-width="1" stroke-linejoin="round"></polygon><g><text x="606" y="713" font-family="&quot;Liberation Sans&quot;, Arial, Helvetica, sans-serif" font-size="18.400000000000002" text-anchor="start" dominant-baseline="central" fill="#000"></text></g><rect x="659.292236328125" y="689.6" width="201.41552734375" height="46.8" fill="#fff" opacity="1"></rect><g><text x="760" y="702.63" font-family="&quot;Liberation Sans&quot;, Arial, Helvetica, sans-serif" font-size="17" text-anchor="middle" dominant-baseline="central" fill="#000">упрощённый прогноз по</text><text x="760" y="723.37" font-family="&quot;Liberation Sans&quot;, Arial, Helvetica, sans-serif" font-size="17" text-anchor="middle" dominant-baseline="central" fill="#000">сезонности</text></g><path d="M533 836 L325 836" fill="none" stroke="#000" stroke-width="2.2" stroke-dasharray="9 6" stroke-linejoin="round" stroke-linecap="round"></path><polygon points="312,836 327,829 327,843" fill="#fff" stroke="#000" stroke-width="2" stroke-linejoin="round"></polygon><rect x="345.37060546875" y="765.2" width="154.2587890625" height="19.599999999999998" fill="#fff"></rect><g><text x="422.5" y="775" font-family="&quot;Liberation Sans&quot;, Arial, Helvetica, sans-serif" font-size="18" text-anchor="middle" dominant-baseline="central" fill="#000">прогноз, история,</text></g><rect x="328.22314453125" y="786.8000000000001" width="188.5537109375" height="19.599999999999998" fill="#fff"></rect><g><text x="422.5" y="796.6" font-family="&quot;Liberation Sans&quot;, Arial, Helvetica, sans-serif" font-size="18" text-anchor="middle" dominant-baseline="central" fill="#000">признак упрощённого</text></g><rect x="386.349609375" y="808.4000000000001" width="72.30078125" height="19.599999999999998" fill="#fff"></rect><g><text x="422.5" y="818.2" font-family="&quot;Liberation Sans&quot;, Arial, Helvetica, sans-serif" font-size="18" text-anchor="middle" dominant-baseline="central" fill="#000">режима</text></g><path d="M298 898 L105 898" fill="none" stroke="#000" stroke-width="2.2" stroke-dasharray="9 6" stroke-linejoin="round" stroke-linecap="round"></path><polygon points="92,898 107,891 107,905" fill="#fff" stroke="#000" stroke-width="2" stroke-linejoin="round"></polygon><rect x="106.9765625" y="848.8000000000001" width="176.046875" height="19.599999999999998" fill="#fff"></rect><g><text x="195" y="858.6" font-family="&quot;Liberation Sans&quot;, Arial, Helvetica, sans-serif" font-size="18" text-anchor="middle" dominant-baseline="central" fill="#000">график, показатели,</text></g><rect x="160.203125" y="870.4000000000001" width="69.59375" height="19.599999999999998" fill="#fff"></rect><g><text x="195" y="880.2" font-family="&quot;Liberation Sans&quot;, Arial, Helvetica, sans-serif" font-size="18" text-anchor="middle" dominant-baseline="central" fill="#000">вклады</text></g></svg>